<svg id="wave" style="transform:rotate(180deg); transition: 0.3s" viewBox="0 0 1440 490" version="1.1" xmlns="http://www.w3.org/2000/svg"><defs><linearGradient id="sw-gradient-0" x1="0" x2="0" y1="1" y2="0"><stop stop-color="rgba(243, 106, 62, 1)" offset="0%"></stop><stop stop-color="rgba(255, 179, 11, 1)" offset="100%"></stop></linearGradient></defs><path style="transform:translate(0, 0px); opacity:1" fill="url(#sw-gradient-0)" d="M0,196L48,179.7C96,163,192,131,288,163.3C384,196,480,294,576,302.2C672,310,768,229,864,179.7C960,131,1056,114,1152,130.7C1248,147,1344,196,1440,253.2C1536,310,1632,376,1728,359.3C1824,343,1920,245,2016,196C2112,147,2208,147,2304,147C2400,147,2496,147,2592,138.8C2688,131,2784,114,2880,130.7C2976,147,3072,196,3168,179.7C3264,163,3360,82,3456,89.8C3552,98,3648,196,3744,269.5C3840,343,3936,392,4032,383.8C4128,376,4224,310,4320,236.8C4416,163,4512,82,4608,73.5C4704,65,4800,131,4896,179.7C4992,229,5088,261,5184,269.5C5280,278,5376,261,5472,285.8C5568,310,5664,376,5760,351.2C5856,327,5952,212,6048,204.2C6144,196,6240,294,6336,318.5C6432,343,6528,294,6624,261.3C6720,229,6816,212,6864,204.2L6912,196L6912,490L6864,490C6816,490,6720,490,6624,490C6528,490,6432,490,6336,490C6240,490,6144,490,6048,490C5952,490,5856,490,5760,490C5664,490,5568,490,5472,490C5376,490,5280,490,5184,490C5088,490,4992,490,4896,490C4800,490,4704,490,4608,490C4512,490,4416,490,4320,490C4224,490,4128,490,4032,490C3936,490,3840,490,3744,490C3648,490,3552,490,3456,490C3360,490,3264,490,3168,490C3072,490,2976,490,2880,490C2784,490,2688,490,2592,490C2496,490,2400,490,2304,490C2208,490,2112,490,2016,490C1920,490,1824,490,1728,490C1632,490,1536,490,1440,490C1344,490,1248,490,1152,490C1056,490,960,490,864,490C768,490,672,490,576,490C480,490,384,490,288,490C192,490,96,490,48,490L0,490Z"></path><defs><linearGradient id="sw-gradient-1" x1="0" x2="0" y1="1" y2="0"><stop stop-color="rgba(243, 106, 62, 1)" offset="0%"></stop><stop stop-color="rgba(255, 179, 11, 1)" offset="100%"></stop></linearGradient></defs><path style="transform:translate(0, 50px); opacity:0.9" fill="url(#sw-gradient-1)" d="M0,392L48,400.2C96,408,192,425,288,383.8C384,343,480,245,576,220.5C672,196,768,245,864,236.8C960,229,1056,163,1152,187.8C1248,212,1344,327,1440,318.5C1536,310,1632,180,1728,163.3C1824,147,1920,245,2016,277.7C2112,310,2208,278,2304,236.8C2400,196,2496,147,2592,171.5C2688,196,2784,294,2880,310.3C2976,327,3072,261,3168,236.8C3264,212,3360,229,3456,220.5C3552,212,3648,180,3744,204.2C3840,229,3936,310,4032,302.2C4128,294,4224,196,4320,179.7C4416,163,4512,229,4608,245C4704,261,4800,229,4896,236.8C4992,245,5088,294,5184,269.5C5280,245,5376,147,5472,114.3C5568,82,5664,114,5760,122.5C5856,131,5952,114,6048,138.8C6144,163,6240,229,6336,220.5C6432,212,6528,131,6624,98C6720,65,6816,82,6864,89.8L6912,98L6912,490L6864,490C6816,490,6720,490,6624,490C6528,490,6432,490,6336,490C6240,490,6144,490,6048,490C5952,490,5856,490,5760,490C5664,490,5568,490,5472,490C5376,490,5280,490,5184,490C5088,490,4992,490,4896,490C4800,490,4704,490,4608,490C4512,490,4416,490,4320,490C4224,490,4128,490,4032,490C3936,490,3840,490,3744,490C3648,490,3552,490,3456,490C3360,490,3264,490,3168,490C3072,490,2976,490,2880,490C2784,490,2688,490,2592,490C2496,490,2400,490,2304,490C2208,490,2112,490,2016,490C1920,490,1824,490,1728,490C1632,490,1536,490,1440,490C1344,490,1248,490,1152,490C1056,490,960,490,864,490C768,490,672,490,576,490C480,490,384,490,288,490C192,490,96,490,48,490L0,490Z"></path></svg>